# xmcd
#
# Track frame offsets: 
#        150
#        22641
#        41533
#        58582
#        75307
#        103108
#        114639
#        135281
#        156732
#        174584
#
# Disc length: 2616 seconds
#
# Revision: 0
# Processed by: cddbd v1.5.2PL0 Copyright (c) Steve Scherf et al.
# Submitted via: ExactAudioCopyFreeDBPlugin 1.0
#
DISCID=740a360a
DTITLE=Sven Zetterberg - Mileage
DYEAR=2012
DGENRE=Blues
TTITLE0=Love Can Go Wrong
TTITLE1=Tall, Dangerous and Drunk
TTITLE2=All My Luck is Gone
TTITLE3=Kind of Lonesome
TTITLE4=I'm Gonna Change
TTITLE5=Hillbilly Blues
TTITLE6=Breaking Up Somebody's Home
TTITLE7=Part Time Love
TTITLE8=Rome Wasn't Built In a Day
TTITLE9=Give Me Some of Yourself
EXTD=
EXTT0=
EXTT1=
EXTT2=
EXTT3=
EXTT4=
EXTT5=
EXTT6=
EXTT7=
EXTT8=
EXTT9=
PLAYORDER=
